<?xml version="1.0" encoding="utf-8"?>
<!-- Generator: Adobe Illustrator 25.2.0, SVG Export Plug-In . SVG Version: 6.00 Build 0)  -->
<svg version="1.1" id="Layer_1" xmlns="http://www.w3.org/2000/svg" xmlns:xlink="http://www.w3.org/1999/xlink" x="0px" y="0px"
	 viewBox="0 0 1920 1080" style="enable-background:new 0 0 1920 1080;" xml:space="preserve">
<style type="text/css">
	* {--color: 0, 255, 255;}
	.st0{fill:url(#SVGID_1_);}
	.st1{fill:rgba(var(--color), 1);}
	.st2{fill:rgba(var(--color), 1);}
	.st3{clip-path:url(#SVGID_3_);}
	.st4{opacity:0.15;fill-rule:evenodd;clip-rule:evenodd;fill:rgba(var(--color), 1);}
	.st5{opacity:0.15;fill:none;stroke:rgba(var(--color), 1);stroke-width:20;stroke-linecap:round;stroke-linejoin:round;}
	.st6{opacity:0.15;fill:rgba(var(--color), 1);}
	.st7{opacity:0.15;fill:none;stroke:rgba(var(--color), 1);stroke-width:25;stroke-linecap:round;stroke-linejoin:round;}
	.st8{opacity:0.15;fill:none;stroke:rgba(var(--color), 1);stroke-width:30;stroke-linecap:round;stroke-linejoin:round;}
	.st9{opacity:0.15;}
	.st10{fill:rgba(var(--color), 1);}
</style>
<g>
	<linearGradient id="SVGID_1_" gradientUnits="userSpaceOnUse" x1="0" y1="0" x2="1920" y2="1080">
		<stop offset="0" style="stop-color:#242424"/>
		<stop offset="1" style="stop-color:#121212"/>
	</linearGradient>
	<rect class="st0" width="1920" height="1080"/>
</g>
<g>
	<path class="st1" d="M1995,960L1995,960c-27.61,0-50-22.39-50-50v0c0-27.61,22.39-50,50-50l0,0c27.61,0,50,22.39,50,50v0
		C2045,937.61,2022.61,960,1995,960z"/>
</g>
<g>
	<path class="st2" d="M1995,1080L1995,1080c-27.61,0-50-22.39-50-50l0,0c0-27.61,22.39-50,50-50l0,0c27.61,0,50,22.39,50,50l0,0
		C2045,1057.61,2022.61,1080,1995,1080z"/>
</g>
<g>
	<defs>
		<rect id="SVGID_2_" y="2" width="1920" height="1080"/>
	</defs>
	<clipPath id="SVGID_3_">
		<use xlink:href="#SVGID_2_"  style="overflow:visible;"/>
	</clipPath>
	<g class="st3">
		<path class="st4" d="M190.22,215.81c8.04-0.64,15.67-3.8,21.81-9.03c14.32-12.21,35.39-12.21,49.71,0
			c6.14,5.23,13.77,8.39,21.81,9.03c18.76,1.5,33.65,16.39,35.15,35.15c0.64,8.04,3.8,15.67,9.03,21.81
			c12.2,14.32,12.2,35.39,0,49.71c-5.23,6.14-8.39,13.77-9.03,21.81c-1.5,18.76-16.39,33.65-35.15,35.15
			c-8.04,0.64-15.67,3.8-21.81,9.03c-14.32,12.2-35.39,12.2-49.71,0c-6.14-5.23-13.77-8.39-21.81-9.03
			c-18.76-1.5-33.65-16.39-35.15-35.15c-0.64-8.04-3.8-15.67-9.03-21.81c-12.21-14.32-12.21-35.39,0-49.71
			c5.23-6.14,8.39-13.77,9.03-21.81C156.56,232.2,171.46,217.3,190.22,215.81z M283.22,281.46c4.88-4.88,4.88-12.8,0-17.68
			c-4.88-4.88-12.8-4.88-17.68,0l-41.16,41.16l-16.16-16.16c-4.88-4.88-12.8-4.88-17.68,0c-4.88,4.88-4.88,12.8,0,17.68l25,25
			c4.88,4.88,12.8,4.88,17.68,0L283.22,281.46z"/>
		<path class="st4" d="M569.12,197.62c-4.95,0-9.4,3.05-11.3,7.72c-1.89,4.67-0.85,10.05,2.65,13.62l8.65,8.84v46.97
			c0,3.32-1.29,6.49-3.58,8.84l-48.91,50c-23.11,23.62-6.74,64.02,25.94,64.02h126.48c32.68,0,49.05-40.39,25.94-64.02l-48.91-50
			c-2.29-2.34-3.58-5.52-3.58-8.84V227.8l8.65-8.84c3.5-3.57,4.54-8.95,2.65-13.62c-1.89-4.67-6.35-7.72-11.3-7.72H569.12z
			 M593.58,274.76v-52.14h24.46v52.14c0,9.95,3.86,19.48,10.74,26.52l12.57,12.84c-8.77-2.08-17.96-1.66-26.55,1.27l-5.75,1.96
			c-10.04,3.42-20.9,3.42-30.94,0l-6.88-2.34c-0.47-0.16-0.93-0.3-1.4-0.43l13.01-13.29C589.72,294.25,593.58,284.71,593.58,274.76z
			"/>
		<path class="st5" d="M974.74,232.36V376.8 M974.74,232.36c-12.98-8.62-30.6-13.92-50-13.92c-19.4,0-37.02,5.3-50,13.92V376.8
			c12.98-8.62,30.6-13.92,50-13.92c19.4,0,37.02,5.3,50,13.92 M974.74,232.36c12.98-8.62,30.6-13.92,50-13.92
			c19.41,0,37.02,5.3,50,13.92V376.8c-12.98-8.62-30.59-13.92-50-13.92c-19.4,0-37.02,5.3-50,13.92"/>
		<g>
			<path class="st4" d="M1293.67,247.62v-12.5c0-20.71,16.79-37.5,37.5-37.5h25c20.71,0,37.5,16.79,37.5,37.5v12.5h25
				c13.81,0,25,11.19,25,25v44.64c-31.13,11.55-64.81,17.86-100,17.86c-35.19,0-68.87-6.32-100-17.86v-44.63c0-13.81,11.19-25,25-25
				H1293.67z M1318.67,235.12c0-6.9,5.6-12.5,12.5-12.5h25c6.9,0,12.5,5.6,12.5,12.5v12.5h-50V235.12z M1331.17,297.62
				c0-6.9,5.6-12.5,12.5-12.5h0.12c6.9,0,12.5,5.6,12.5,12.5c0,6.9-5.6,12.5-12.5,12.5h-0.12
				C1336.76,310.12,1331.17,304.52,1331.17,297.62z"/>
			<path class="st6" d="M1243.67,343.77v28.85c0,13.81,11.19,25,25,25h150c13.81,0,25-11.19,25-25v-28.85
				c-31.41,10.6-65.04,16.35-100,16.35C1308.71,360.12,1275.08,354.37,1243.67,343.77z"/>
		</g>
		<path class="st4" d="M1662.59,210.12c0-6.9,5.6-12.5,12.5-12.5h0.12c6.9,0,12.5,5.6,12.5,12.5s-5.6,12.5-12.5,12.5h-0.12
			C1668.19,222.62,1662.59,217.02,1662.59,210.12z M1687.59,247.62c0-6.9-5.6-12.5-12.5-12.5c-6.9,0-12.5,5.6-12.5,12.5v12.5
			c-13.81,0-25,11.19-25,25v12.5c-13.81,0-25,11.19-25,25v8.54c4.61,1.29,9.06,3.31,13.18,6.06c7.16,4.77,16.48,4.77,23.63,0
			c15.55-10.37,35.81-10.37,51.37,0c7.16,4.77,16.48,4.77,23.63,0c15.55-10.37,35.82-10.37,51.37,0c7.16,4.77,16.48,4.77,23.63,0
			c4.12-2.75,8.58-4.77,13.18-6.06v-8.54c0-13.81-11.19-25-25-25v-12.5c0-13.81-11.19-25-25-25v-12.5c0-6.9-5.6-12.5-12.5-12.5
			c-6.9,0-12.5,5.6-12.5,12.5v12.5h-12.5v-12.5c0-6.9-5.6-12.5-12.5-12.5c-6.9,0-12.5,5.6-12.5,12.5v12.5h-12.5V247.62z
			 M1812.59,358.47c-15.46,9.92-35.36,9.77-50.68-0.45c-7.15-4.77-16.48-4.77-23.63,0c-15.55,10.37-35.81,10.37-51.37,0
			c-7.16-4.77-16.48-4.77-23.63,0c-15.33,10.22-35.22,10.37-50.68,0.45v26.65c0,6.9,5.6,12.5,12.5,12.5h175
			c6.9,0,12.5-5.6,12.5-12.5V358.47z M1700.09,210.12c0-6.9,5.6-12.5,12.5-12.5h0.12c6.9,0,12.5,5.6,12.5,12.5s-5.6,12.5-12.5,12.5
			h-0.12C1705.69,222.62,1700.09,217.02,1700.09,210.12z M1737.59,210.12c0-6.9,5.6-12.5,12.5-12.5h0.12c6.9,0,12.5,5.6,12.5,12.5
			s-5.6,12.5-12.5,12.5h-0.12C1743.19,222.62,1737.59,217.02,1737.59,210.12z"/>
	</g>
	<g class="st3">
		<path class="st4" d="M-1.32,442.33c-13.81,0-25,11.19-25,25v150c0,13.81,11.19,25,25,25h100c13.81,0,25-11.19,25-25v-150
			c0-13.81-11.19-25-25-25H-1.32z M11.18,467.33c-6.9,0-12.5,5.6-12.5,12.5c0,6.9,5.6,12.5,12.5,12.5h75c6.9,0,12.5-5.6,12.5-12.5
			c0-6.9-5.6-12.5-12.5-12.5H11.18z M86.18,554.83c6.9,0,12.5,5.6,12.5,12.5v37.5c0,6.9-5.6,12.5-12.5,12.5s-12.5-5.6-12.5-12.5
			v-37.5C73.68,560.42,79.28,554.83,86.18,554.83z M48.68,592.33c-6.9,0-12.5,5.6-12.5,12.5s5.6,12.5,12.5,12.5h0.13
			c6.9,0,12.5-5.6,12.5-12.5s-5.6-12.5-12.5-12.5H48.68z M-1.32,604.83c0-6.9,5.6-12.5,12.5-12.5h0.13c6.9,0,12.5,5.6,12.5,12.5
			s-5.6,12.5-12.5,12.5h-0.13C4.28,617.33-1.32,611.73-1.32,604.83z M11.18,554.83c-6.9,0-12.5,5.6-12.5,12.5s5.6,12.5,12.5,12.5
			h0.13c6.9,0,12.5-5.6,12.5-12.5s-5.6-12.5-12.5-12.5H11.18z M36.18,567.33c0-6.9,5.6-12.5,12.5-12.5h0.13
			c6.9,0,12.5,5.6,12.5,12.5s-5.6,12.5-12.5,12.5h-0.13C41.78,579.83,36.18,574.23,36.18,567.33z M86.18,517.33
			c-6.9,0-12.5,5.6-12.5,12.5s5.6,12.5,12.5,12.5h0.12c6.9,0,12.5-5.6,12.5-12.5s-5.6-12.5-12.5-12.5H86.18z M36.18,529.83
			c0-6.9,5.6-12.5,12.5-12.5h0.13c6.9,0,12.5,5.6,12.5,12.5s-5.6,12.5-12.5,12.5h-0.13C41.78,542.33,36.18,536.73,36.18,529.83z
			 M11.18,517.33c-6.9,0-12.5,5.6-12.5,12.5s5.6,12.5,12.5,12.5h0.13c6.9,0,12.5-5.6,12.5-12.5s-5.6-12.5-12.5-12.5H11.18z"/>
		<path class="st4" d="M368.04,442.33c-6.9,0-12.5,5.6-12.5,12.5v12.5h-12.5c-13.81,0-25,11.19-25,25v125c0,13.81,11.19,25,25,25
			h150c13.81,0,25-11.19,25-25v-125c0-13.81-11.19-25-25-25h-12.5v-12.5c0-6.9-5.6-12.5-12.5-12.5s-12.5,5.6-12.5,12.5v12.5h-75
			v-12.5C380.54,447.92,374.95,442.33,368.04,442.33z M368.04,504.83c-6.9,0-12.5,5.6-12.5,12.5s5.6,12.5,12.5,12.5h100
			c6.9,0,12.5-5.6,12.5-12.5s-5.6-12.5-12.5-12.5H368.04z"/>
		<path class="st7" d="M831.32,498.58v87.5 M787.57,531.39v54.69 M743.82,564.2v21.88 M721.94,629.83h131.25
			c12.08,0,21.88-9.79,21.88-21.88V476.7c0-12.08-9.79-21.88-21.88-21.88H721.94c-12.08,0-21.88,9.79-21.88,21.88v131.25
			C700.07,620.03,709.86,629.83,721.94,629.83z"/>
		<g>
			<path class="st6" d="M1190.43,508.99h-66.67v66.67h66.67V508.99z"/>
			<path class="st4" d="M1123.76,453.44c0-6.14,4.97-11.11,11.11-11.11s11.11,4.97,11.11,11.11v11.11h22.22v-11.11
				c0-6.14,4.97-11.11,11.11-11.11c6.14,0,11.11,4.97,11.11,11.11v11.11h22.22c12.27,0,22.22,9.95,22.22,22.22v22.22h11.11
				c6.14,0,11.11,4.97,11.11,11.11c0,6.14-4.97,11.11-11.11,11.11h-11.11v22.22h11.11c6.14,0,11.11,4.97,11.11,11.11
				c0,6.14-4.97,11.11-11.11,11.11h-11.11v22.22c0,12.27-9.95,22.22-22.22,22.22h-22.22v11.11c0,6.14-4.97,11.11-11.11,11.11
				c-6.14,0-11.11-4.97-11.11-11.11V620.1h-22.22v11.11c0,6.14-4.97,11.11-11.11,11.11s-11.11-4.97-11.11-11.11V620.1h-22.22
				c-12.27,0-22.22-9.95-22.22-22.22v-22.22h-11.11c-6.14,0-11.11-4.97-11.11-11.11c0-6.14,4.97-11.11,11.11-11.11h11.11v-22.22
				h-11.11c-6.14,0-11.11-4.97-11.11-11.11c0-6.14,4.97-11.11,11.11-11.11h11.11v-22.22c0-12.27,9.95-22.22,22.22-22.22h22.22
				V453.44z M1101.54,486.77h111.11v111.11h-111.11V486.77z"/>
		</g>
		<path class="st8" d="M1441.62,570.66c0,20.86,16.91,37.78,37.78,37.78h85c26.08,0,47.22-21.14,47.22-47.22
			s-21.14-47.22-47.22-47.22c-0.32,0-0.63,0-0.94,0.01c-4.37-21.56-23.43-37.79-46.28-37.79c-26.08,0-47.22,21.14-47.22,47.22
			c0,3.56,0.39,7.03,1.14,10.36C1454.22,537.58,1441.62,552.65,1441.62,570.66z"/>
		<path class="st4" d="M1914.78,456.96c-4.74-19.52-32.49-19.52-37.23,0c-3.06,12.61-17.5,18.59-28.58,11.84
			c-17.15-10.45-36.78,9.18-26.33,26.33c6.75,11.08,0.77,25.52-11.84,28.58c-19.52,4.74-19.52,32.49,0,37.23
			c12.61,3.06,18.59,17.51,11.84,28.58c-10.45,17.15,9.18,36.78,26.33,26.33c11.08-6.75,25.52-0.77,28.58,11.84
			c4.74,19.52,32.49,19.52,37.23,0c3.06-12.61,17.51-18.59,28.58-11.84c17.15,10.45,36.78-9.18,26.33-26.33
			c-6.75-11.08-0.77-25.52,11.84-28.58c19.52-4.74,19.52-32.49,0-37.23c-12.61-3.06-18.59-17.5-11.84-28.58
			c10.45-17.15-9.18-36.78-26.33-26.33C1932.28,475.55,1917.84,469.57,1914.78,456.96z M1896.16,579.83
			c20.71,0,37.5-16.79,37.5-37.5c0-20.71-16.79-37.5-37.5-37.5c-20.71,0-37.5,16.79-37.5,37.5
			C1858.66,563.04,1875.45,579.83,1896.16,579.83z"/>
	</g>
	<g class="st3">
		<g>
			<path class="st5" d="M146.88,757.03c0-11.05,8.95-20,20-20h9.3c6.69,0,12.93-3.34,16.64-8.91l8.13-12.19
				c3.71-5.56,9.95-8.91,16.64-8.91h38.59c6.69,0,12.93,3.34,16.64,8.91l8.13,12.19c3.71,5.56,9.95,8.91,16.64,8.91h9.3
				c11.05,0,20,8.95,20,20v90c0,11.05-8.95,20-20,20h-140c-11.05,0-20-8.95-20-20V757.03z"/>
			<path class="st5" d="M272.17,794.56c0,19.49-15.8,35.29-35.29,35.29s-35.29-15.8-35.29-35.29c0-19.49,15.8-35.29,35.29-35.29
				S272.17,775.07,272.17,794.56z"/>
		</g>
		<path class="st5" d="M655.81,757.03v-20c0-11.05-8.95-20-20-20h-100c-11.05,0-20,8.95-20,20v60c0,11.05,8.95,20,20,20h20
			 M575.81,857.03h100c11.05,0,20-8.95,20-20v-60c0-11.05-8.95-20-20-20h-100c-11.05,0-20,8.95-20,20v60
			C555.81,848.08,564.76,857.03,575.81,857.03z M645.81,807.03c0,11.05-8.95,20-20,20c-11.05,0-20-8.95-20-20s8.95-20,20-20
			C636.85,787.03,645.81,795.99,645.81,807.03z"/>
		<g>
			<path class="st4" d="M879.24,874.84c-6.01-6.01-6.01-15.75,0-21.76l66.04-66.04l-66.04-66.04c-6.01-6.01-6.01-15.75,0-21.76
				c6.01-6.01,15.75-6.01,21.76,0l76.92,76.92c6.01,6.01,6.01,15.75,0,21.76L901,874.84C894.99,880.84,885.25,880.84,879.24,874.84z
				"/>
			<path class="st4" d="M971.55,874.84c-6.01-6.01-6.01-15.75,0-21.76l66.04-66.04l-66.04-66.04c-6.01-6.01-6.01-15.75,0-21.76
				c6.01-6.01,15.75-6.01,21.76,0l76.92,76.92c6.01,6.01,6.01,15.75,0,21.76l-76.92,76.92C987.3,880.84,977.56,880.84,971.55,874.84
				z"/>
		</g>
		<path class="st4" d="M1343.67,887.03c55.23,0,100-44.77,100-100c0-55.23-44.77-100-100-100c-55.23,0-100,44.77-100,100
			C1243.67,842.26,1288.44,887.03,1343.67,887.03z M1356.17,737.03c0-6.9-5.6-12.5-12.5-12.5c-6.9,0-12.5,5.6-12.5,12.5v50
			c0,3.32,1.32,6.49,3.66,8.84l35.36,35.35c4.88,4.88,12.8,4.88,17.68,0c4.88-4.88,4.88-12.8,0-17.68l-31.69-31.69V737.03z"/>
		<path class="st5" d="M1667.59,823.03c-19.88,0-36-16.12-36-36c0-17.16,12.01-31.52,28.09-35.13c-0.71-3.18-1.09-6.48-1.09-9.87
			c0-24.85,20.15-45,45-45c21.77,0,39.94,15.46,44.1,36.01c0.3-0.01,0.6-0.01,0.9-0.01c24.85,0,45,20.15,45,45
			c0,21.77-15.46,39.93-36,44.1 M1685.59,850.03l27,27 M1712.59,877.03l27-27 M1712.59,877.03v-108"/>
	</g>
	<g class="st3">
		<path class="st5" d="M128.68,981.74l-80-40l-80,40 M128.68,981.74l-80,40 M128.68,981.74v100l-80,40 M48.68,1021.74l-80-40
			 M48.68,1021.74v100 M-31.32,981.74v100l80,40"/>
		<path class="st5" d="M338,981.74v100c0,22.09,35.82,40,80,40c44.18,0,80-17.91,80-40v-100 M338,981.74c0,22.09,35.82,40,80,40
			c44.18,0,80-17.91,80-40 M338,981.74c0-22.09,35.82-40,80-40c44.18,0,80,17.91,80,40 M498,1031.74c0,22.09-35.82,40-80,40
			c-44.18,0-80-17.91-80-40"/>
		<path class="st5" d="M788,1091.74h0.1 M748,1121.74h80c11.05,0,20-8.95,20-20v-140c0-11.05-8.95-20-20-20h-80
			c-11.05,0-20,8.95-20,20v140C728,1112.79,736.95,1121.74,748,1121.74z"/>
		<path class="st5" d="M1134.5,1081.74l-7.5,30l-10,10h80l-10-10l-7.5-30 M1067,1041.74h180 M1087,1081.74h140
			c11.05,0,20-8.95,20-20v-100c0-11.05-8.95-20-20-20h-140c-11.05,0-20,8.95-20,20v100C1067,1072.79,1075.95,1081.74,1087,1081.74z"
			/>
		<path class="st5" d="M1483,951.74v160 M1583,951.74v160 M1443,991.74h40 M1583,991.74h40 M1443,1031.74h180 M1443,1071.74h40
			 M1583,1071.74h40 M1453,1111.74h160c5.52,0,10-4.48,10-10v-140c0-5.52-4.48-10-10-10h-160c-5.52,0-10,4.48-10,10v140
			C1443,1107.26,1447.48,1111.74,1453,1111.74z"/>
		<path class="st5" d="M1896.16,991.74v130 M1896.16,991.74c0,0,0-14.93,0-20c0-11.05,8.95-20,20-20s20,8.95,20,20s-8.95,20-20,20
			C1910.19,991.74,1896.16,991.74,1896.16,991.74z M1896.16,991.74c0,0,0-19.37,0-25c0-13.81-11.19-25-25-25
			c-13.81,0-25,11.19-25,25c0,13.81,11.19,25,25,25C1879.34,991.74,1896.16,991.74,1896.16,991.74z M1826.16,1031.74h140
			 M1826.16,1031.74c-11.05,0-20-8.95-20-20c0-11.05,8.95-20,20-20h140c11.05,0,20,8.95,20,20c0,11.05-8.95,20-20,20
			 M1826.16,1031.74v70c0,11.05,8.95,20,20,20h100c11.05,0,20-8.95,20-20v-70"/>
	</g>
	<g class="st3">
		<path class="st6" d="M94.77,74.79c7.81-12.29,12.4-26.88,12.4-42.55c0-43.8-35.47-79.32-79.22-79.32
			c-43.8,0-79.27,35.52-79.27,79.32s35.47,79.32,79.22,79.32c15.89,0,30.68-4.69,43.07-12.71l3.59-2.5l56.56,56.56l17.55-17.86
			L92.17,78.49L94.77,74.79z M72.33-12.09C84.15-0.26,90.66,15.46,90.66,32.18s-6.51,32.45-18.33,44.27S44.77,94.79,28.05,94.79
			s-32.45-6.51-44.27-18.33S-34.55,48.9-34.55,32.18s6.51-32.45,18.33-44.27s27.55-18.33,44.27-18.33
			C44.77-30.42,60.5-23.91,72.33-12.09z"/>
		<path class="st6" d="M517.76,28.86c-0.69-2.22-2.52-3.84-4.73-4.18l-62-9.44l-27.73-58.9c-0.99-2.1-3.02-3.42-5.25-3.42
			c-2.23,0-4.27,1.33-5.25,3.42l-27.73,58.9l-62,9.44c-2.21,0.34-4.04,1.96-4.73,4.18c-0.69,2.22-0.11,4.66,1.48,6.3L364.68,81
			l-10.59,64.73c-0.38,2.3,0.53,4.63,2.33,6.01c1.02,0.78,2.23,1.17,3.44,1.17c0.93,0,1.87-0.23,2.73-0.71l55.46-30.56l55.45,30.56
			c1.97,1.09,4.37,0.91,6.17-0.47s2.71-3.7,2.33-6.01L471.41,81l44.87-45.84C517.87,33.52,518.45,31.08,517.76,28.86z"/>
		<g class="st9">
			<path class="st10" d="M737.57,52.91c0,13.81-11.19,25-25,25c-13.81,0-25-11.19-25-25c0-13.81,11.19-25,25-25
				C726.38,27.91,737.57,39.11,737.57,52.91z"/>
			<path class="st10" d="M812.57,52.91c0,13.81-11.19,25-25,25c-13.81,0-25-11.19-25-25c0-13.81,11.19-25,25-25
				C801.38,27.91,812.57,39.11,812.57,52.91z"/>
			<path class="st10" d="M862.57,77.91c13.81,0,25-11.19,25-25c0-13.81-11.19-25-25-25c-13.81,0-25,11.19-25,25
				C837.57,66.72,848.76,77.91,862.57,77.91z"/>
		</g>
		<g class="st9">
			<path class="st10" d="M1077.8,77.33c-7.03,0-12.5,5.47-12.5,12.5c0,7.03,5.47,12.5,12.5,12.5s12.5-5.47,12.5-12.5
				C1090.3,82.8,1084.83,77.33,1077.8,77.33z M1077.8,93.73c-2.34,0-3.91-1.56-3.91-3.91c0-2.34,1.56-3.91,3.91-3.91
				s3.91,1.56,3.91,3.91C1081.7,91.78,1080.14,93.73,1077.8,93.73z"/>
			<path class="st10" d="M1220.77,77.33c-7.03,0-12.5,5.47-12.5,12.5c0,7.03,5.47,12.5,12.5,12.5s12.5-5.47,12.5-12.5
				C1233.27,82.8,1227.8,77.33,1220.77,77.33z M1220.77,93.73c-2.34,0-3.91-1.56-3.91-3.91c0-2.34,1.56-3.91,3.91-3.91
				s3.91,1.56,3.91,3.91C1224.67,91.78,1223.11,93.73,1220.77,93.73z"/>
			<path class="st10" d="M1271.55,25.37h-2.34c-2.73-16.41-20.7-37.5-46.88-37.5h-88.67c-23.44,0-43.75,35.55-48.83,45.31h-22.66
				c-16.8,0-30.08,13.67-30.08,30.08v21.87c0,4.69,3.91,8.59,8.59,8.59h8.98c1.95,13.67,14.06,24.22,28.12,24.22
				s26.17-10.55,28.12-24.22h86.72c1.95,13.67,14.06,24.22,28.12,24.22s26.17-10.55,28.12-24.22H1261c4.69,0,8.59-3.91,8.59-8.59
				V64.83h1.95c5.86,0,10.55-4.69,10.55-10.55V35.92C1282.09,30.06,1277.41,25.37,1271.55,25.37z M1077.8,109.36
				c-10.94,0-19.92-8.98-19.92-19.92s8.98-19.92,19.92-19.92s19.92,8.98,19.92,19.92C1097.72,100.76,1088.73,109.36,1077.8,109.36z
				 M1220.77,109.36c-10.94,0-19.92-8.98-19.92-19.92s8.98-19.92,19.92-19.92s19.92,8.98,19.92,19.92
				C1240.69,100.76,1231.7,109.36,1220.77,109.36z M1261,85.53h-12.11c-1.95-13.67-14.06-24.22-28.12-24.22
				s-26.17,10.55-28.12,24.22h-86.72c-1.95-13.67-14.06-24.22-28.12-24.22s-26.17,10.55-28.12,24.22h-8.98V63.65
				c0-11.72,9.77-21.48,21.48-21.48h25c1.56,0,3.12-0.78,3.91-2.34c5.86-12.11,25-42.97,42.58-42.97h88.28
				c24.22,0,38.67,21.48,38.67,33.2v30.86v24.61H1261z M1273.5,54.28c0,1.17-0.78,1.95-1.95,1.95h-1.95V33.97h1.95
				c1.17,0,1.95,0.78,1.95,1.95V54.28z"/>
			<path class="st10" d="M1172.33,5.84h-28.91c-11.33,0-22.27,5.47-28.12,14.84l-9.77,14.84c-0.78,1.17-0.78,3.12,0,4.3
				c0.78,1.56,2.34,2.34,3.91,2.34h62.89c2.34,0,4.3-1.95,4.3-4.3V10.14C1176.62,7.8,1174.67,5.84,1172.33,5.84z M1168.03,33.58
				h-50.78l5.47-8.2c4.3-6.64,12.11-10.94,20.7-10.94h24.61V33.58z"/>
			<path class="st10" d="M1214.91,5.84h-24.61c-2.34,0-4.3,1.95-4.3,4.3v27.73c0,2.34,1.95,4.3,4.3,4.3h54.3
				c2.34,0,4.3-1.95,4.3-4.3C1249.28,20.3,1234.05,5.84,1214.91,5.84z M1194.98,33.58V14.44h20.31c12.5,0,23.05,8.2,25,19.14
				H1194.98z"/>
		</g>
		<path class="st4" d="M1596.33-20.42h-140.09c-3.68,0-6.66,2.99-6.66,6.66s2.98,6.66,6.66,6.66h140.09
			c9.34,0,16.95,7.6,16.95,16.97v86.08c0,9.35-7.61,16.95-16.95,16.95H1456.9c-9.34,0-16.95-7.6-16.95-16.95V9.21
			c0-3.69-2.99-6.67-6.68-6.67c-3.67,0-6.65,2.98-6.65,6.67v86.75c0,16.71,13.58,30.29,30.29,30.29h139.43
			c16.7,0,30.29-13.58,30.29-30.29V9.87C1626.62-6.84,1613.03-20.42,1596.33-20.42L1596.33-20.42z M1573.94,74.23
			c-4.05,0-7.33-3.28-7.33-7.31c0-3.7-2.99-6.68-6.67-6.68s-6.66,2.98-6.66,6.68c0,9.03,5.88,16.66,13.99,19.45v3.77
			c0,3.68,2.99,6.68,6.67,6.68c3.69,0,6.66-3,6.66-6.68v-3.77c8.12-2.79,13.99-10.42,13.99-19.45c0-11.41-9.26-20.67-20.65-20.67
			c-4.05,0-7.33-3.28-7.33-7.32c0-4.04,3.28-7.33,7.33-7.33c4.03,0,7.32,3.28,7.32,7.33c0,3.68,2.98,6.67,6.67,6.67
			c3.68,0,6.66-2.99,6.66-6.67c0-9.05-5.87-16.66-13.99-19.46v-3.79c0-3.68-2.97-6.67-6.66-6.67c-3.68,0-6.67,2.99-6.67,6.67v3.79
			c-8.11,2.8-13.99,10.41-13.99,19.46c0,11.39,9.27,20.65,20.66,20.65c4.03,0,7.32,3.28,7.32,7.34
			C1581.26,70.94,1577.98,74.23,1573.94,74.23L1573.94,74.23z M1459.94,92.92h66.67c3.68,0,6.66-3,6.66-6.67
			c0-3.67-2.98-6.66-6.66-6.66h-66.67c-3.68,0-6.66,2.99-6.66,6.66C1453.28,89.92,1456.26,92.92,1459.94,92.92z M1459.94,26.25
			h66.67c3.68,0,6.66-2.99,6.66-6.66c0-3.69-2.98-6.67-6.66-6.67h-66.67c-3.68,0-6.66,2.98-6.66,6.67
			C1453.28,23.26,1456.26,26.25,1459.94,26.25z M1459.94,59.57h66.67c3.68,0,6.66-2.98,6.66-6.67c0-3.68-2.98-6.66-6.66-6.66h-66.67
			c-3.68,0-6.66,2.98-6.66,6.66C1453.28,56.59,1456.26,59.57,1459.94,59.57z"/>
		<path class="st6" d="M1859.06,134.17c75.47,0,116.75-62.53,116.75-116.75c0-1.78,0-3.54-0.12-5.3c8.03-5.81,14.96-13,20.47-21.24
			c-7.49,3.32-15.43,5.49-23.57,6.46c8.56-5.13,14.98-13.2,18.04-22.7c-8.05,4.78-16.87,8.15-26.06,9.96
			c-7.76-8.25-18.59-12.93-29.92-12.93c-22.53,0-41.07,18.54-41.07,41.07c0,3.13,0.36,6.24,1.06,9.29
			c-32.98-1.65-63.74-17.25-84.57-42.87c-10.83,18.64-5.23,42.8,12.7,54.78c-6.53-0.19-12.92-1.96-18.62-5.14v0.52
			c0.01,19.46,13.85,36.37,32.92,40.22c-6.04,1.65-12.38,1.89-18.53,0.7c5.36,16.67,20.82,28.17,38.34,28.5
			c-14.53,11.42-32.48,17.62-50.96,17.6c-3.26-0.01-6.53-0.2-9.77-0.59c18.76,12.04,40.6,18.43,62.9,18.4"/>
	</g>
</g>
</svg>
